<svg width="50" height="50" viewBox="0 0 50 50" fill="none" xmlns="http://www.w3.org/2000/svg">
<circle cx="25" cy="25" r="25" fill="white"/>
<path d="M35.565 19.785C35.442 19.862 32.514 21.487 32.514 25.09C32.652 29.199 36.209 30.64 36.27 30.64C36.209 30.717 35.733 32.603 34.323 34.58C33.204 36.283 31.962 38 30.076 38C28.282 38 27.638 36.865 25.568 36.865C23.345 36.865 22.716 38 21.014 38C19.128 38 17.794 36.191 16.614 34.504C15.081 32.296 13.778 28.831 13.732 25.504C13.701 23.741 14.039 22.008 14.897 20.536C16.108 18.481 18.27 17.086 20.631 17.04C22.44 16.979 24.05 18.282 25.154 18.282C26.212 18.282 28.19 17.04 30.428 17.04C31.394 17.041 33.97 17.332 35.565 19.785ZM25.001 16.688C24.679 15.078 25.568 13.468 26.396 12.441C27.454 11.199 29.125 10.356 30.566 10.356C30.658 11.966 30.075 13.545 29.033 14.695C28.098 15.937 26.488 16.872 25.001 16.688Z" fill="black"/>
</svg>
