<svg width="50" height="50" viewBox="0 0 50 50" fill="none" xmlns="http://www.w3.org/2000/svg">
<circle cx="25" cy="25" r="25" fill="white"/>
<path d="M25.998 36C19.6562 36 14.4961 30.8418 14.4961 24.5C14.4961 18.1582 19.6562 13 25.998 13C28.8711 13 31.6211 14.0645 33.7441 15.998L34.1309 16.3516L30.3379 20.1445L29.9863 19.8438C28.873 18.8906 27.457 18.3652 25.998 18.3652C22.6152 18.3652 19.8613 21.1172 19.8613 24.5C19.8613 27.8828 22.6152 30.6348 25.998 30.6348C28.4375 30.6348 30.3652 29.3887 31.2734 27.2656H25.498V22.0879L36.7734 22.1035L36.8574 22.5C37.4453 25.291 36.9746 29.3965 34.5918 32.334C32.6191 34.7656 29.7285 36 25.998 36Z" fill="black"/>
</svg>
