<svg width="50" height="50" viewBox="0 0 50 50" fill="none" xmlns="http://www.w3.org/2000/svg">
<circle cx="25" cy="25" r="25" fill="white"/>
<path d="M25.5 10.5C17.7685 10.5 11.5 16.7685 11.5 24.5C11.5 31.5187 16.6707 37.3147 23.407 38.3273V28.21H19.9432V24.5303H23.407V22.0815C23.407 18.0273 25.3822 16.2482 28.7515 16.2482C30.365 16.2482 31.219 16.3683 31.6227 16.422V19.6338H29.3243C27.894 19.6338 27.3947 20.9907 27.3947 22.519V24.5303H31.5865L31.0183 28.21H27.3947V38.3565C34.2278 37.4302 39.5 31.5875 39.5 24.5C39.5 16.7685 33.2315 10.5 25.5 10.5Z" fill="black"/>
</svg>
